<svg xmlns="http://www.w3.org/2000/svg" width="19.203" height="15.266" viewBox="0 0 19.203 15.266">
    <g id="_001-dashboard" data-name="001-dashboard" transform="translate(0 -0.001)">
        <path id="Path_1170" data-name="Path 1170" d="M205,123.718a.75.75,0,0,0-.953-.089c-1.122.765-6.752,4.612-7.357,5.217a2.25,2.25,0,0,0,3.183,3.183c.605-.605,4.452-6.235,5.217-7.357A.75.75,0,0,0,205,123.718Zm-6.189,7.25a.75.75,0,0,1-1.061-1.061c.235-.232,1.834-1.372,3.8-2.739C200.18,129.134,199.04,130.732,198.808,130.967Z" transform="translate(-188.676 -120.834)" fill="#fff"/>
        <path id="Path_1171" data-name="Path 1171" d="M3.459,65.59l-.926.452a8.064,8.064,0,0,1-.506-6.817l1.061.509a.75.75,0,1,0,.649-1.353l-1.048-.5a8.112,8.112,0,0,1,6.162-3.845v1.128a.75.75,0,0,0,1.5,0V54.033a8.008,8.008,0,0,1,2.579.68.75.75,0,1,0,.617-1.367A9.594,9.594,0,0,0,1.627,67.431a.75.75,0,0,0,.953.257l1.538-.75a.75.75,0,1,0-.658-1.348Z" transform="translate(0 -52.498)" fill="#fff"/>
        <path id="Path_1172" data-name="Path 1172" d="M393.724,191.936a.75.75,0,1,0-1.367.617,8.075,8.075,0,0,1-.323,7.276l-.967-.46a.75.75,0,0,0-.645,1.355l1.575.75a.75.75,0,0,0,.946-.26,9.579,9.579,0,0,0,.781-9.277Z" transform="translate(-375.367 -186.279)" fill="#fff"/>
    </g>
</svg>
