<svg xmlns="http://www.w3.org/2000/svg" width="480" height="50" viewBox="0 0 480 50">
    <g id="HEADER_-_website" data-name="HEADER - website" transform="translate(0 0)">
        <g id="Group_2394" data-name="Group 2394" transform="translate(-141.127 -71)">
            <g id="blanc" transform="translate(-899.947 -754.337)">
                <path id="Path_949" data-name="Path 949" d="M1265.615,876.4H1262.7v10.006c0,2.029,1.4,3.428,4.151,3.428h2.076v-2.915h-2.052c-.91,0-1.26-.187-1.26-1v-4.245h3.312v-2.915h-3.312Z" transform="translate(-169.936 -30.614)" fill="#161616"/>
                <path id="Path_950" data-name="Path 950" d="M1371.115,886.843v-.956H1368.2v11.078h2.915v-5.481a2.625,2.625,0,0,1,2.869-2.869h1.353V885.7h-1.329A3.524,3.524,0,0,0,1371.115,886.843Z" transform="translate(-250.83 -37.745)" fill="#161616"/>
                <path id="Path_951" data-name="Path 951" d="M1414.415,876.4H1411.5v10.006c0,2.029,1.4,3.428,4.151,3.428h2.076v-2.915h-2.052c-.91,0-1.259-.56-1.259-1.353v-3.895h3.312v-2.915h-3.312Z" transform="translate(-284.031 -30.614)" fill="#161616"/>
                <path id="Path_952" data-name="Path 952" d="M1526.77,892.167a2.763,2.763,0,0,1-2.659,3.032,2.268,2.268,0,0,1-2.5-2.519V886.5H1518.7v6.717a4.925,4.925,0,0,0,8.047,3.545v.84h2.915V886.523h-2.915v5.644Z" transform="translate(-366.229 -38.358)" fill="#161616"/>
                <rect id="Rectangle_1452" data-name="Rectangle 1452" width="2.915" height="11.078" transform="translate(1167.118 848.142)" fill="#161616"/>
                <rect id="Rectangle_1453" data-name="Rectangle 1453" width="2.915" height="15.44" transform="translate(1173.695 843.78)" fill="#161616"/>
                <path id="Path_953" data-name="Path 953" d="M1643.793,873.218a4.619,4.619,0,0,0-3.2-1.143,5.775,5.775,0,0,0,0,11.545,4.674,4.674,0,0,0,3.2-1.12v.84h2.915V867.9h-2.915Zm-2.985,7.72a2.965,2.965,0,0,1-2.939-3.1,3.022,3.022,0,1,1,6.041,0A2.956,2.956,0,0,1,1640.807,880.938Z" transform="translate(-455.404 -24.097)" fill="#161616"/>
                <rect id="Rectangle_1454" data-name="Rectangle 1454" width="2.915" height="11.078" transform="translate(1194.965 848.142)" fill="#161616"/>
                <path id="Path_954" data-name="Path 954" d="M1735.327,885.7a4.647,4.647,0,0,0-3.312,1.12v-.956H1729.1v11.1h2.915v-5.551a2.786,2.786,0,0,1,2.729-3.032,2.309,2.309,0,0,1,2.566,2.519v6.064h2.915v-6.6C1740.2,887.472,1738.2,885.7,1735.327,885.7Z" transform="translate(-527.557 -37.745)" fill="#161616"/>
                <path id="Path_955" data-name="Path 955" d="M1798.293,886.08v.84a4.6,4.6,0,0,0-3.2-1.119,5.775,5.775,0,0,0,0,11.545,4.688,4.688,0,0,0,3.2-1.143v.4a3.018,3.018,0,0,1-5.528,1.446h-3.149a5.714,5.714,0,0,0,5.714,4.035c3.685,0,5.831-2.192,5.831-5.6v-10.4Zm-2.962,8.583a3,3,0,0,1-2.939-3.125,3.021,3.021,0,1,1,6.041,0A3,3,0,0,1,1795.331,894.663Z" transform="translate(-573.87 -37.822)" fill="#161616"/>
                <path id="Path_956" data-name="Path 956" d="M1466.128,872.685c0-2.426-1.609-4.385-5.108-4.385H1454v15.323h7.043c3.475,0,5.108-1.959,5.108-4.385a3.615,3.615,0,0,0-1.773-3.265A3.708,3.708,0,0,0,1466.128,872.685Zm-5.411,8.233h-3.708V877.3h3.708c1.446,0,2.379.63,2.379,1.8C1463.1,880.311,1462.21,880.918,1460.717,880.918Zm0-6.321h-3.708v-3.592h3.708c1.446,0,2.379.606,2.379,1.773C1463.1,873.991,1462.21,874.6,1460.717,874.6Z" transform="translate(-316.619 -24.403)" fill="#161616"/>
                <path id="Path_957" data-name="Path 957" d="M1311.093,886.943a4.619,4.619,0,0,0-3.2-1.143,5.775,5.775,0,0,0,0,11.545,4.674,4.674,0,0,0,3.2-1.12v.84h2.915V885.987h-2.915Zm-2.985,7.72a2.965,2.965,0,0,1-2.939-3.1,3.022,3.022,0,1,1,6.041,0A2.968,2.968,0,0,1,1308.107,894.663Z" transform="translate(-200.3 -37.822)" fill="#161616"/>
                <path id="Path_958" data-name="Path 958" d="M1200.941,869.705a4.1,4.1,0,0,1,3.732,1.843h3.078a6.736,6.736,0,0,0-6.764-4.548c-3.732,0-6.087,1.982-6.087,4.8,0,2.286,1.306,4.035,4.525,4.338l.3.023v.023l2.822.28c1.376.163,2.193.746,2.193,1.749,0,1.073-1,2.006-3.032,2.006a4.1,4.1,0,0,1-3.732-1.843H1194.9a6.736,6.736,0,0,0,6.764,4.548c3.732,0,6.087-1.982,6.087-4.8,0-2.286-1.306-4.035-4.525-4.338l-.3-.023v-.023l-2.822-.28c-1.376-.163-2.193-.746-2.193-1.749C1197.909,870.638,1198.912,869.705,1200.941,869.705Z" transform="translate(-117.949 -23.406)" fill="#161616"/>
                <rect id="Rectangle_1455" data-name="Rectangle 1455" width="2.915" height="2.705" transform="translate(1167.118 843.78)" fill="#161616"/>
                <rect id="Rectangle_1456" data-name="Rectangle 1456" width="2.915" height="2.705" transform="translate(1194.965 843.78)" fill="#161616"/>
                <path id="Path_959" data-name="Path 959" d="M1065.593,849.4h0l-2.006-1.166,2.006-1.166c.047-.023.093-.07.14-.093a2.418,2.418,0,0,0,0-4.245c-.047-.023-.093-.07-.14-.093l-2.146-1.236-8.163-4.711a1.64,1.64,0,0,0-1.633,2.845l8.163,4.711,1.12.63-2.589,1.493-10.915-6.3a1.64,1.64,0,1,0-1.633,2.845l11.731,6.764h0l4.431,2.565h0a1.494,1.494,0,0,1,.583,1.026v2.309l-2.379-1.376-17.212-9.936a1.13,1.13,0,0,0-.163-.07,2.585,2.585,0,0,0-2.472-.023,2.51,2.51,0,0,0-1.213,2.146v3.708a4.707,4.707,0,0,0,2.216,3.848l13.714,7.93-1.982,1.143h0a1.506,1.506,0,0,1-1.19,0h0L1043.529,857a1.64,1.64,0,0,0-1.633,2.845l10.332,5.947h0a4.469,4.469,0,0,0,2.216.56,4.407,4.407,0,0,0,2.216-.56h0l3.032-1.749c.047-.023.093-.07.14-.093a2.418,2.418,0,0,0,0-4.245c-.047-.023-.093-.07-.14-.093l-14.763-8.536a1.494,1.494,0,0,1-.583-1.026v-2.309l16.163,9.329,3.428,1.982h0a2.765,2.765,0,0,0,1.446.4,2.182,2.182,0,0,0,1.189-.327,2.509,2.509,0,0,0,1.213-2.146v-3.708A4.638,4.638,0,0,0,1065.593,849.4Z" transform="translate(0 0)" fill="#161616"/>
            </g>
        </g>
    </g>
</svg>
