<svg id="_001-email" data-name="001-email" xmlns="http://www.w3.org/2000/svg" width="26.678" height="18.341" viewBox="0 0 26.678 18.341">
    <g id="Group_1553" data-name="Group 1553" transform="translate(17.684 3.381)">
        <g id="Group_1552" data-name="Group 1552">
            <path id="Path_742" data-name="Path 742" d="M339.392,150.822l8.994,5.686V144.9Z" transform="translate(-339.392 -144.896)" fill="#fff"/>
        </g>
    </g>
    <g id="Group_1555" data-name="Group 1555" transform="translate(0 3.381)">
        <g id="Group_1554" data-name="Group 1554">
            <path id="Path_743" data-name="Path 743" d="M0,144.9v11.611l8.994-5.686Z" transform="translate(0 -144.896)" fill="#fff"/>
        </g>
    </g>
    <g id="Group_1557" data-name="Group 1557" transform="translate(0.05)">
        <g id="Group_1556" data-name="Group 1556">
            <path id="Path_744" data-name="Path 744" d="M25.92,80H2.577A1.647,1.647,0,0,0,.96,81.419l13.289,8.755,13.289-8.755A1.647,1.647,0,0,0,25.92,80Z" transform="translate(-0.96 -80)" fill="#fff"/>
        </g>
    </g>
    <g id="Group_1559" data-name="Group 1559" transform="translate(0.053 10.313)">
        <g id="Group_1558" data-name="Group 1558">
            <path id="Path_745" data-name="Path 745" d="M17.127,277.922l-2.359,1.554a.837.837,0,0,1-.917,0l-2.359-1.556L1.024,284.541a1.644,1.644,0,0,0,1.614,1.407H25.981a1.644,1.644,0,0,0,1.614-1.407Z" transform="translate(-1.024 -277.92)" fill="#fff"/>
        </g>
    </g>
</svg>
