<svg xmlns="http://www.w3.org/2000/svg" width="30.414" height="19.621" viewBox="0 0 30.414 19.621">
  <g id="Group_4875" data-name="Group 4875" transform="translate(0 40)">
    <path id="Path_964" data-name="Path 964" d="M12.868-36.566a3.434,3.434,0,0,1-3.434,3.434A3.434,3.434,0,0,1,6-36.566,3.434,3.434,0,0,1,9.434-40,3.434,3.434,0,0,1,12.868-36.566Z" transform="translate(-3.057 0)" fill="#eee" fill-rule="evenodd"/>
    <path id="Path_965" data-name="Path 965" d="M48.868-36.566a3.434,3.434,0,0,1-3.434,3.434A3.434,3.434,0,0,1,42-36.566,3.434,3.434,0,0,1,45.434-40,3.434,3.434,0,0,1,48.868-36.566Z" transform="translate(-21.397 0)" fill="#eee" fill-rule="evenodd"/>
    <path id="Path_966" data-name="Path 966" d="M29.773-7.132v-3.434a1.734,1.734,0,0,0-.589-1.374,6.958,6.958,0,0,0-2.878-1.6A8.153,8.153,0,0,0,23.886-14a6.8,6.8,0,0,0-2.42.458,8.514,8.514,0,0,0-2.878,1.6A1.848,1.848,0,0,0,18-10.566v3.434Z" transform="translate(-8.17 -13.247)" fill="#eee" fill-rule="evenodd"/>
    <path id="Path_967" data-name="Path 967" d="M29.4-25.811a2.974,2.974,0,0,1-2.7,3.189A2.974,2.974,0,0,1,24-25.811,2.974,2.974,0,0,1,26.7-29,2.974,2.974,0,0,1,29.4-25.811Z" transform="translate(-11.227 -5.604)" fill="#eee" fill-rule="evenodd"/>
    <path id="Path_968" data-name="Path 968" d="M49.123-22.087a8.18,8.18,0,0,0-3.178-1.488A10.527,10.527,0,0,0,43.273-24a8.772,8.772,0,0,0-2.672.425,9.759,9.759,0,0,0-1.3.5v.071A4.407,4.407,0,0,1,38-19.89a11.059,11.059,0,0,1,3.323,1.63,2.461,2.461,0,0,1,.578.638h7.873v-3.189A1.506,1.506,0,0,0,49.123-22.087Z" transform="translate(-19.359 -8.151)" fill="#eee" fill-rule="evenodd"/>
    <path id="Path_969" data-name="Path 969" d="M8.451-18.261h0a12.031,12.031,0,0,1,3.323-1.63,4.536,4.536,0,0,1-1.3-3.118v-.142a9.272,9.272,0,0,0-1.3-.425A10.527,10.527,0,0,0,6.5-24a8.772,8.772,0,0,0-2.672.425A11.838,11.838,0,0,0,.65-22.087,1.506,1.506,0,0,0,0-20.811v3.189H7.8A2.751,2.751,0,0,1,8.451-18.261Z" transform="translate(0 -8.151)" fill="#eee" fill-rule="evenodd"/>
  </g>
</svg>