<svg xmlns="http://www.w3.org/2000/svg" width="23.139" height="22.799" viewBox="0 0 23.139 22.799">
    <g id="Group_403" data-name="Group 403" transform="translate(-2.059 7.903) rotate(-45)">
        <g id="Rectangle_627" data-name="Rectangle 627" transform="translate(14.088 4.183) rotate(90)" fill="none" stroke="#fff" stroke-width="2">
            <path d="M0,0H6.251a7.044,7.044,0,0,1,7.044,7.044v0a7.044,7.044,0,0,1-7.044,7.044H0a0,0,0,0,1,0,0V0A0,0,0,0,1,0,0Z" stroke="none"/>
            <path d="M1,1H6.251a6.044,6.044,0,0,1,6.044,6.044v0a6.044,6.044,0,0,1-6.044,6.044H1a0,0,0,0,1,0,0V1A0,0,0,0,1,1,1Z" fill="none"/>
        </g>
        <g id="Rectangle_629" data-name="Rectangle 629" transform="translate(7.87)" fill="none" stroke="#fff" stroke-linecap="square" stroke-linejoin="bevel" stroke-width="1">
            <path d="M1.653,0h0A1.653,1.653,0,0,1,3.306,1.653v4.2a0,0,0,0,1,0,0H0a0,0,0,0,1,0,0v-4.2A1.653,1.653,0,0,1,1.653,0Z" stroke="none"/>
            <path d="M1.653.5h0A1.153,1.153,0,0,1,2.806,1.653v3.7a0,0,0,0,1,0,0H.5a0,0,0,0,1,0,0v-3.7A1.153,1.153,0,0,1,1.653.5Z" fill="none"/>
        </g>
        <g id="Rectangle_630" data-name="Rectangle 630" transform="translate(2.911 0)" fill="none" stroke="#fff" stroke-linecap="square" stroke-linejoin="bevel" stroke-width="1">
            <path d="M1.653,0h0A1.653,1.653,0,0,1,3.306,1.653v4.2a0,0,0,0,1,0,0H0a0,0,0,0,1,0,0v-4.2A1.653,1.653,0,0,1,1.653,0Z" stroke="none"/>
            <path d="M1.653.5h0A1.153,1.153,0,0,1,2.806,1.653v3.7a0,0,0,0,1,0,0H.5a0,0,0,0,1,0,0v-3.7A1.153,1.153,0,0,1,1.653.5Z" fill="none"/>
        </g>
        <path id="Path_99" data-name="Path 99" d="M.543,0A7.079,7.079,0,0,0,.219,4.393c.5,1.753,2.519,3.842.956,5.656" transform="translate(6.465 15.793)" fill="none" stroke="#fff" stroke-width="2"/>
    </g>
</svg>
