<svg xmlns="http://www.w3.org/2000/svg" width="18.525" height="22.205" viewBox="0 0 18.525 22.205">
    <g id="Group_2584" data-name="Group 2584" transform="translate(-4 -148)">
        <g id="Group_2591" data-name="Group 2591" transform="translate(4 148)">
            <g id="Group_2590" data-name="Group 2590">
                <g id="Group_2589" data-name="Group 2589">
                    <path id="Path_746" data-name="Path 746" d="M92.38,10.7a5.175,5.175,0,0,0,3.782-1.567,5.175,5.175,0,0,0,1.567-3.781,5.176,5.176,0,0,0-1.567-3.781,5.347,5.347,0,0,0-7.563,0,5.175,5.175,0,0,0-1.567,3.781A5.175,5.175,0,0,0,88.6,9.13,5.176,5.176,0,0,0,92.38,10.7Zm0,0" transform="translate(-83.257)" fill="#ebebeb"/>
                    <path id="Path_747" data-name="Path 747" d="M18.48,253.665a13.209,13.209,0,0,0-.18-1.4,11.053,11.053,0,0,0-.345-1.411,6.967,6.967,0,0,0-.58-1.316,4.965,4.965,0,0,0-.874-1.14,3.855,3.855,0,0,0-1.256-.789,4.341,4.341,0,0,0-1.6-.29,1.628,1.628,0,0,0-.869.369c-.261.17-.565.366-.905.584a5.189,5.189,0,0,1-1.172.516,4.55,4.55,0,0,1-2.866,0,5.178,5.178,0,0,1-1.171-.516c-.337-.215-.642-.412-.906-.584a1.625,1.625,0,0,0-.869-.369,4.336,4.336,0,0,0-1.6.291,3.853,3.853,0,0,0-1.256.789,4.965,4.965,0,0,0-.874,1.139,6.982,6.982,0,0,0-.58,1.316,11.08,11.08,0,0,0-.345,1.411,13.162,13.162,0,0,0-.18,1.4c-.029.425-.044.866-.044,1.311a3.687,3.687,0,0,0,1.1,2.789A3.942,3.942,0,0,0,3.917,258.8H14.608a3.941,3.941,0,0,0,2.822-1.029,3.685,3.685,0,0,0,1.1-2.79c0-.447-.015-.889-.045-1.312Zm0,0" transform="translate(0 -236.59)" fill="#ebebeb"/>
                </g>
            </g>
        </g>
    </g>
</svg>
