<svg id="Group_2159" data-name="Group 2159" xmlns="http://www.w3.org/2000/svg" width="21.748" height="25.461" viewBox="0 0 21.748 25.461">
    <g id="_001-apple" data-name="001-apple">
        <g id="Group_2138" data-name="Group 2138" transform="translate(10.452)">
            <g id="Group_2137" data-name="Group 2137">
                <path id="Path_961" data-name="Path 961" d="M252.716,0a5.975,5.975,0,0,0-3.869,2.094,5.19,5.19,0,0,0-1.267,4.032,5.043,5.043,0,0,0,3.9-1.994A5.6,5.6,0,0,0,252.716,0Z" transform="translate(-247.522)" fill="#ebebeb"/>
            </g>
        </g>
        <g id="Group_2140" data-name="Group 2140" transform="translate(0 5.96)">
            <g id="Group_2139" data-name="Group 2139">
                <path id="Path_962" data-name="Path 962" d="M58.347,122.423a6.445,6.445,0,0,0-4.865-2.583c-2.284,0-3.249,1.093-4.836,1.093-1.636,0-2.879-1.09-4.854-1.09a6.6,6.6,0,0,0-5.315,3.213c-1.841,2.855-1.526,8.222,1.458,12.794,1.068,1.636,2.494,3.475,4.359,3.491,1.66.016,2.128-1.065,4.376-1.076s2.675,1.09,4.332,1.073c1.867-.014,3.37-2.053,4.438-3.689a18.345,18.345,0,0,0,1.644-3.087A5.613,5.613,0,0,1,58.347,122.423Z" transform="translate(-37.336 -119.84)" fill="#ebebeb"/>
            </g>
        </g>
    </g>
</svg>