<svg id="_002-google" data-name="002-google" xmlns="http://www.w3.org/2000/svg" width="24.997" height="24.997" viewBox="0 0 24.997 24.997">
    <path id="Path_964" data-name="Path 964" d="M278.142,211.479h-10.2a.815.815,0,0,0-.815.815v3.257a.815.815,0,0,0,.815.815h5.742a7.665,7.665,0,0,1-3.3,3.866l2.448,4.238a12.255,12.255,0,0,0,6.249-10.718,8.263,8.263,0,0,0-.14-1.6A.819.819,0,0,0,278.142,211.479Z" transform="translate(-254.089 -201.154)" fill="#fff"/>
    <path id="Path_965" data-name="Path 965" d="M45.23,337.654a7.606,7.606,0,0,1-6.58-3.807l-4.238,2.443a12.489,12.489,0,0,0,17.068,4.581v-.006l-2.448-4.238A7.551,7.551,0,0,1,45.23,337.654Z" transform="translate(-32.731 -317.548)" fill="#fff"/>
    <path id="Path_966" data-name="Path 966" d="M262.249,395.023v-.006l-2.448-4.238a7.551,7.551,0,0,1-3.8,1.028V396.7A12.477,12.477,0,0,0,262.249,395.023Z" transform="translate(-243.501 -371.7)" fill="#fff"/>
    <path id="Path_967" data-name="Path 967" d="M4.891,134.362a7.551,7.551,0,0,1,1.027-3.8L1.68,128.119a12.441,12.441,0,0,0,0,12.487l4.238-2.443A7.551,7.551,0,0,1,4.891,134.362Z" transform="translate(0 -121.864)" fill="#fff"/>
    <path id="Path_968" data-name="Path 968" d="M45.23,4.891a7.573,7.573,0,0,1,4.83,1.734.812.812,0,0,0,1.093-.049L53.46,4.268a.821.821,0,0,0-.047-1.2,12.471,12.471,0,0,0-19,3.188L38.649,8.7A7.606,7.606,0,0,1,45.23,4.891Z" transform="translate(-32.731)" fill="#fff"/>
    <path id="Path_969" data-name="Path 969" d="M260.83,6.625a.812.812,0,0,0,1.093-.049l2.308-2.308a.821.821,0,0,0-.047-1.2A12.461,12.461,0,0,0,256,0V4.891A7.573,7.573,0,0,1,260.83,6.625Z" transform="translate(-243.501)" fill="#fff"/>
</svg>
