<?xml version="1.0" encoding="UTF-8" standalone="no"?>
<svg
   width="197"
   height="45"
   viewBox="0 0 197 45"
   version="1.1"
   id="svg21"
   sodipodi:docname="logo1.svg"
   inkscape:export-filename="logo.png"
   inkscape:export-xdpi="96"
   inkscape:export-ydpi="96"
   inkscape:version="1.2 (dc2aeda, 2022-05-15)"
   xmlns:inkscape="http://www.inkscape.org/namespaces/inkscape"
   xmlns:sodipodi="http://sodipodi.sourceforge.net/DTD/sodipodi-0.dtd"
   xmlns="http://www.w3.org/2000/svg"
   xmlns:svg="http://www.w3.org/2000/svg">
  <defs
     id="defs25" />
  <sodipodi:namedview
     id="namedview23"
     pagecolor="#ffffff"
     bordercolor="#000000"
     borderopacity="0.25"
     inkscape:showpageshadow="2"
     inkscape:pageopacity="0.0"
     inkscape:pagecheckerboard="0"
     inkscape:deskcolor="#d1d1d1"
     showgrid="false"
     inkscape:zoom="2.7916667"
     inkscape:cx="50.865672"
     inkscape:cy="15.761194"
     inkscape:window-width="1440"
     inkscape:window-height="900"
     inkscape:window-x="0"
     inkscape:window-y="0"
     inkscape:window-maximized="0"
     inkscape:current-layer="svg21" />
  <g
     id="HEADER_-_website"
     data-name="HEADER - website">
    <g
       id="Group_2394"
       data-name="Group 2394"
       transform="translate(-141.127,-71)">
      <g
         id="blanc"
         transform="translate(-899.947,-754.337)">
        <path
           id="Path_949"
           data-name="Path 949"
           d="m 1265.615,876.4 h -2.915 v 10.006 c 0,2.029 1.4,3.428 4.151,3.428 h 2.076 v -2.915 h -2.052 c -0.91,0 -1.26,-0.187 -1.26,-1 v -4.245 h 3.312 v -2.915 h -3.312 z"
           transform="translate(-169.936,-30.614)"
           fill="#161616" />
        <path
           id="Path_950"
           data-name="Path 950"
           d="m 1371.115,886.843 v -0.956 h -2.915 v 11.078 h 2.915 v -5.481 a 2.625,2.625 0 0 1 2.869,-2.869 h 1.353 V 885.7 h -1.329 a 3.524,3.524 0 0 0 -2.893,1.143 z"
           transform="translate(-250.83,-37.745)"
           fill="#161616" />
        <path
           id="Path_951"
           data-name="Path 951"
           d="m 1414.415,876.4 h -2.915 v 10.006 c 0,2.029 1.4,3.428 4.151,3.428 h 2.076 v -2.915 h -2.052 c -0.91,0 -1.259,-0.56 -1.259,-1.353 v -3.895 h 3.312 v -2.915 h -3.312 z"
           transform="translate(-284.031,-30.614)"
           fill="#161616" />
        <path
           id="Path_952"
           data-name="Path 952"
           d="m 1526.77,892.167 a 2.763,2.763 0 0 1 -2.659,3.032 2.268,2.268 0 0 1 -2.5,-2.519 v -6.18 h -2.911 v 6.717 a 4.925,4.925 0 0 0 8.047,3.545 v 0.84 h 2.915 v -11.079 h -2.915 v 5.644 z"
           transform="translate(-366.229,-38.358)"
           fill="#161616" />
        <rect
           id="Rectangle_1452"
           data-name="Rectangle 1452"
           width="2.915"
           height="11.078"
           transform="translate(1167.118,848.142)"
           fill="#161616"
           x="0"
           y="0" />
        <rect
           id="Rectangle_1453"
           data-name="Rectangle 1453"
           width="2.915"
           height="15.44"
           transform="translate(1173.695,843.78)"
           fill="#161616"
           x="0"
           y="0" />
        <path
           id="Path_953"
           data-name="Path 953"
           d="m 1643.793,873.218 a 4.619,4.619 0 0 0 -3.2,-1.143 5.775,5.775 0 0 0 0,11.545 4.674,4.674 0 0 0 3.2,-1.12 v 0.84 h 2.915 V 867.9 h -2.915 z m -2.985,7.72 a 2.965,2.965 0 0 1 -2.939,-3.1 3.022,3.022 0 1 1 6.041,0 2.956,2.956 0 0 1 -3.103,3.1 z"
           transform="translate(-455.404,-24.097)"
           fill="#161616" />
        <rect
           id="Rectangle_1454"
           data-name="Rectangle 1454"
           width="2.915"
           height="11.078"
           transform="translate(1194.965,848.142)"
           fill="#161616"
           x="0"
           y="0" />
        <path
           id="Path_954"
           data-name="Path 954"
           d="m 1735.327,885.7 a 4.647,4.647 0 0 0 -3.312,1.12 v -0.956 h -2.915 v 11.1 h 2.915 v -5.551 a 2.786,2.786 0 0 1 2.729,-3.032 2.309,2.309 0 0 1 2.566,2.519 v 6.064 h 2.915 v -6.6 c -0.025,-2.892 -2.025,-4.664 -4.898,-4.664 z"
           transform="translate(-527.557,-37.745)"
           fill="#161616" />
        <path
           id="Path_955"
           data-name="Path 955"
           d="m 1798.293,886.08 v 0.84 a 4.6,4.6 0 0 0 -3.2,-1.119 5.775,5.775 0 0 0 0,11.545 4.688,4.688 0 0 0 3.2,-1.143 v 0.4 a 3.018,3.018 0 0 1 -5.528,1.446 h -3.149 a 5.714,5.714 0 0 0 5.714,4.035 c 3.685,0 5.831,-2.192 5.831,-5.6 v -10.4 z m -2.962,8.583 a 3,3 0 0 1 -2.939,-3.125 3.021,3.021 0 1 1 6.041,0 3,3 0 0 1 -3.102,3.125 z"
           transform="translate(-573.87,-37.822)"
           fill="#161616" />
        <path
           id="Path_956"
           data-name="Path 956"
           d="m 1466.128,872.685 c 0,-2.426 -1.609,-4.385 -5.108,-4.385 H 1454 v 15.323 h 7.043 c 3.475,0 5.108,-1.959 5.108,-4.385 a 3.615,3.615 0 0 0 -1.773,-3.265 3.708,3.708 0 0 0 1.75,-3.288 z m -5.411,8.233 h -3.708 V 877.3 h 3.708 c 1.446,0 2.379,0.63 2.379,1.8 0,1.211 -0.886,1.818 -2.379,1.818 z m 0,-6.321 h -3.708 v -3.592 h 3.708 c 1.446,0 2.379,0.606 2.379,1.773 0,1.213 -0.886,1.822 -2.379,1.822 z"
           transform="translate(-316.619,-24.403)"
           fill="#161616" />
        <path
           id="Path_957"
           data-name="Path 957"
           d="m 1311.093,886.943 a 4.619,4.619 0 0 0 -3.2,-1.143 5.775,5.775 0 0 0 0,11.545 4.674,4.674 0 0 0 3.2,-1.12 v 0.84 h 2.915 v -11.078 h -2.915 z m -2.985,7.72 a 2.965,2.965 0 0 1 -2.939,-3.1 3.022,3.022 0 1 1 6.041,0 2.968,2.968 0 0 1 -3.103,3.1 z"
           transform="translate(-200.3,-37.822)"
           fill="#161616" />
        <path
           id="Path_958"
           data-name="Path 958"
           d="m 1200.941,869.705 a 4.1,4.1 0 0 1 3.732,1.843 h 3.078 A 6.736,6.736 0 0 0 1200.987,867 c -3.732,0 -6.087,1.982 -6.087,4.8 0,2.286 1.306,4.035 4.525,4.338 l 0.3,0.023 v 0.023 l 2.822,0.28 c 1.376,0.163 2.193,0.746 2.193,1.749 0,1.073 -1,2.006 -3.032,2.006 a 4.1,4.1 0 0 1 -3.732,-1.843 h -3.076 a 6.736,6.736 0 0 0 6.764,4.548 c 3.732,0 6.087,-1.982 6.087,-4.8 0,-2.286 -1.306,-4.035 -4.525,-4.338 l -0.3,-0.023 v -0.023 l -2.822,-0.28 c -1.376,-0.163 -2.193,-0.746 -2.193,-1.749 0,-1.073 1.001,-2.006 3.03,-2.006 z"
           transform="translate(-117.949,-23.406)"
           fill="#161616" />
        <rect
           id="Rectangle_1455"
           data-name="Rectangle 1455"
           width="2.915"
           height="2.7049999"
           transform="translate(1167.118,843.78)"
           fill="#161616"
           x="0"
           y="0" />
        <rect
           id="Rectangle_1456"
           data-name="Rectangle 1456"
           width="2.915"
           height="2.7049999"
           transform="translate(1194.965,843.78)"
           fill="#161616"
           x="0"
           y="0" />
        <path
           id="Path_959"
           data-name="Path 959"
           d="m 1065.593,849.4 v 0 l -2.006,-1.166 2.006,-1.166 c 0.047,-0.023 0.093,-0.07 0.14,-0.093 a 2.418,2.418 0 0 0 0,-4.245 c -0.047,-0.023 -0.093,-0.07 -0.14,-0.093 l -2.146,-1.236 -8.163,-4.711 a 1.6401764,1.6401764 0 0 0 -1.633,2.845 l 8.163,4.711 1.12,0.63 -2.589,1.493 -10.915,-6.3 a 1.6401764,1.6401764 0 1 0 -1.633,2.845 l 11.731,6.764 v 0 l 4.431,2.565 v 0 a 1.494,1.494 0 0 1 0.583,1.026 v 2.309 l -2.379,-1.376 -17.212,-9.936 a 1.13,1.13 0 0 0 -0.163,-0.07 2.585,2.585 0 0 0 -2.472,-0.023 2.51,2.51 0 0 0 -1.213,2.146 v 3.708 a 4.707,4.707 0 0 0 2.216,3.848 l 13.714,7.93 -1.982,1.143 v 0 a 1.506,1.506 0 0 1 -1.19,0 v 0 L 1043.529,857 a 1.6401764,1.6401764 0 0 0 -1.633,2.845 l 10.332,5.947 v 0 a 4.469,4.469 0 0 0 2.216,0.56 4.407,4.407 0 0 0 2.216,-0.56 v 0 l 3.032,-1.749 c 0.047,-0.023 0.093,-0.07 0.14,-0.093 a 2.418,2.418 0 0 0 0,-4.245 c -0.047,-0.023 -0.093,-0.07 -0.14,-0.093 l -14.763,-8.536 a 1.494,1.494 0 0 1 -0.583,-1.026 v -2.309 l 16.163,9.329 3.428,1.982 v 0 a 2.765,2.765 0 0 0 1.446,0.4 2.182,2.182 0 0 0 1.189,-0.327 2.509,2.509 0 0 0 1.213,-2.146 v -3.708 a 4.638,4.638 0 0 0 -2.192,-3.871 z"
           fill="#161616" />
      </g>
    </g>
  </g>
</svg>
