<svg xmlns="http://www.w3.org/2000/svg" width="20.273" height="21.363" viewBox="0 0 20.273 21.363">
    <path id="Path_62" data-name="Path 62" d="M19.889-35.768c-1.654-.835-4.137-2.961-4.372-10.845a4.784,4.784,0,0,0-3.362-4.678,2.088,2.088,0,0,0,.082-.592A2.109,2.109,0,0,0,10.137-54a2.109,2.109,0,0,0-2.1,2.117,2.088,2.088,0,0,0,.082.592,4.781,4.781,0,0,0-3.362,4.678C4.521-38.738,2.038-36.606.384-35.771A.594.594,0,0,0,.44-34.64H7.933a2.22,2.22,0,0,0,2.432,1.991,2.224,2.224,0,0,0,1.976-1.991h7.493A.592.592,0,0,0,19.889-35.768ZM9.211-51.868a.929.929,0,0,1,.926-.933.929.929,0,0,1,.926.933.963.963,0,0,1-.044.275,5.6,5.6,0,0,0-.882-.1h0a6.073,6.073,0,0,0-.882.1A.928.928,0,0,1,9.211-51.868Z" transform="translate(0 54)" fill="#fff" fill-rule="evenodd"/>
</svg>
