<svg xmlns="http://www.w3.org/2000/svg" width="47.193" height="74.16" viewBox="0 0 47.193 74.16">
    <path id="Path_114" data-name="Path 114" d="M23.6-18.282A9.943,9.943,0,0,1,13.451-28.1,9.943,9.943,0,0,1,23.6-37.913,9.943,9.943,0,0,1,33.742-28.1,9.943,9.943,0,0,1,23.6-18.282ZM23.6-51a23.7,23.7,0,0,0-19.5,10.033A22.389,22.389,0,0,0,1.614-19.7L12.323,3.2,21.567,21.96a2.316,2.316,0,0,0,4.058,0L34.869,3.2,45.579-19.7A22.389,22.389,0,0,0,43.1-40.967,23.7,23.7,0,0,0,23.6-51Z" transform="translate(0 51)" fill="#EE3935" fill-rule="evenodd"/>
</svg>