<svg xmlns="http://www.w3.org/2000/svg" width="32.169" height="35.798" viewBox="0 0 32.169 35.798">
    <g id="logo_orig" transform="translate(-131.715 -107.298)">
        <path id="Path_922" data-name="Path 922" d="M135.893,39.347V39.5a10.35,10.35,0,0,0-2.155,1.159c-.266.158-.637.476-.966.433a3.158,3.158,0,0,1-.966-.5c-.721-.41-1.436-.829-2.155-1.242q-3.643-2.093-7.282-4.193c-.595-.341-1.195-.673-1.783-1.024a2.95,2.95,0,0,0-2.378-.651A2,2,0,0,0,117.2,36.6a4.107,4.107,0,0,0,1.234.882c.6.342,1.186.691,1.783,1.031,4.075,2.317,8.116,4.693,12.186,7.017,1.191.68,2.389,1.353,3.567,2.055a4.657,4.657,0,0,1,1.6,1.131c.625.9.332,2.439.332,3.491-6.251-3.686-12.565-7.283-18.874-10.87-1.217-.692-2.427-1.395-3.641-2.091-1.158-.664-2.341-1.334-3.715-.879a2.866,2.866,0,0,0-1.8,2.025,10.431,10.431,0,0,0-.131,2.675c0,1.843-.152,3.618.808,5.276a7.114,7.114,0,0,0,2.907,2.484c.916.532,1.83,1.067,2.749,1.592,4.217,2.407,8.491,4.759,12.632,7.293-.614.287-1.195.672-1.783,1.009a2.529,2.529,0,0,1-1.263.475,2.556,2.556,0,0,1-1.263-.487c-.6-.341-1.193-.677-1.783-1.027-2.162-1.281-4.36-2.508-6.539-3.76-.917-.527-1.831-1.058-2.749-1.581a3.011,3.011,0,0,0-2.229-.609,1.981,1.981,0,0,0-1.1,3.075,3.758,3.758,0,0,0,1.247.93c.67.384,1.341.766,2.006,1.157,2.365,1.389,4.777,2.7,7.134,4.1,1.449.863,3.022,2.014,4.756,2.133a8.066,8.066,0,0,0,4.83-1.569c1.573-.937,3.987-1.889,3.694-4.146-.209-1.607-1.519-2.338-2.8-3.068-.869-.494-1.733-1-2.6-1.5-3.447-1.976-6.911-3.933-10.329-5.958-.886-.525-1.782-1.035-2.675-1.547a3.688,3.688,0,0,1-1.371-1.01c-.616-.932-.338-2.421-.338-3.491,2.047,1.253,4.166,2.394,6.242,3.6q5.784,3.357,11.592,6.677c1.516.862,3.02,1.744,4.533,2.611a6.056,6.056,0,0,0,2.9,1.152,3.024,3.024,0,0,0,.966-.183c2.025-.717,1.932-2.8,1.932-4.566a17.029,17.029,0,0,0-.111-3.715,5.735,5.735,0,0,0-1.749-2.991,10.654,10.654,0,0,0-1.632-1.067,9.711,9.711,0,0,0-1.56-.847,16.361,16.361,0,0,0,3.192-2.009,2.927,2.927,0,0,0,0-4.155,12.557,12.557,0,0,0-2.746-1.733c-1.639-.934-3.265-1.89-4.9-2.824-1.465-.835-2.918-1.693-4.384-2.526a4.733,4.733,0,0,0-2.155-.92,2,2,0,0,0-1.627,3.1,3.226,3.226,0,0,0,1.181.923c.645.37,1.293.734,1.932,1.113,1.057.626,2.129,1.231,3.2,1.839,1.215.694,2.425,1.4,3.641,2.09A8.7,8.7,0,0,0,135.893,39.347Z" transform="translate(22 77.957)" fill="#fff"/>
    </g>
</svg>
